<?xml version="1.0" encoding="UTF-8" standalone="no"?>
<!-- Generator: Adobe Illustrator 27.4.0, SVG Export Plug-In . SVG Version: 6.00 Build 0)  -->

<svg
   version="1.1"
   id="Livello_1"
   x="0px"
   y="0px"
   viewBox="0 0 1249.8788 416.13956"
   xml:space="preserve"
   sodipodi:docname="AW_Full_Brand_CoolGray10C_RGB - v2023_edit2.svg"
   width="1249.8788"
   height="416.13956"
   inkscape:version="1.3 (0e150ed6c4, 2023-07-21)"
   xmlns:inkscape="http://www.inkscape.org/namespaces/inkscape"
   xmlns:sodipodi="http://sodipodi.sourceforge.net/DTD/sodipodi-0.dtd"
   xmlns:xlink="http://www.w3.org/1999/xlink"
   xmlns="http://www.w3.org/2000/svg"
   xmlns:svg="http://www.w3.org/2000/svg"><defs
   id="defs70" /><sodipodi:namedview
   id="namedview70"
   pagecolor="#ffffff"
   bordercolor="#000000"
   borderopacity="0.25"
   inkscape:showpageshadow="2"
   inkscape:pageopacity="0.0"
   inkscape:pagecheckerboard="0"
   inkscape:deskcolor="#d1d1d1"
   inkscape:zoom="0.78589421"
   inkscape:cx="1029.4006"
   inkscape:cy="177.50481"
   inkscape:window-width="1920"
   inkscape:window-height="1001"
   inkscape:window-x="-9"
   inkscape:window-y="-9"
   inkscape:window-maximized="1"
   inkscape:current-layer="Livello_1" />&#10;<style
   type="text/css"
   id="style1">&#10;	.st0{clip-path:url(#SVGID_00000029767407511996253930000007077487776265359785_);}&#10;	.st1{fill:#63666F;}&#10;	.st2{clip-path:url(#SVGID_00000042703802526592449720000018217119245357286588_);}&#10;	.st3{fill:#1554FF;}&#10;	.st4{fill:#F02823;}&#10;	.st5{fill:#5E6A71;}&#10;	.st6{clip-path:url(#SVGID_00000010288058349438985570000016293980961626856088_);}&#10;	.st7{clip-path:url(#SVGID_00000077311149840905209170000017276079291027731357_);}&#10;	.st8{clip-path:url(#SVGID_00000104672491404540541590000000750612089030458752_);}&#10;	.st9{fill:#565657;}&#10;	.st10{fill:#008270;}&#10;	.st11{fill:#E41E2D;}&#10;	.st12{fill-rule:evenodd;clip-rule:evenodd;fill:#E41E2D;}&#10;</style>&#10;&#10;<g
   id="g6"
   transform="translate(-327.79989,279.83957)">&#10;	<g
   id="g5">&#10;		<defs
   id="defs4"><rect
     id="SVGID_00000008853015604875387560000013061494858534366360_"
     y="0"
     width="1191"
     height="170"
     x="0" /></defs>&#10;		<clipPath
   id="SVGID_00000051365890878229862740000007972742053976178578_">&#10;			<use
   xlink:href="#SVGID_00000008853015604875387560000013061494858534366360_"
   style="overflow:visible"
   id="use4" />&#10;		</clipPath>&#10;	</g>&#10;</g>&#10;<g
   id="g8"
   transform="translate(-327.79989,279.83957)">&#10;	<g
   id="g7">&#10;		<defs
   id="defs6"><rect
     id="SVGID_00000149340552972835009340000016877864771841084580_"
     y="0"
     width="1191"
     height="170"
     x="0" /></defs>&#10;		<clipPath
   id="SVGID_00000074434890879480482730000005976010219853439120_">&#10;			<use
   xlink:href="#SVGID_00000149340552972835009340000016877864771841084580_"
   style="overflow:visible"
   id="use6" />&#10;		</clipPath>&#10;	</g>&#10;</g>&#10;<g
   id="g10"
   transform="translate(-327.79989,279.83957)">&#10;	<g
   id="g9">&#10;		<defs
   id="defs8"><rect
     id="SVGID_00000034787219993858791540000000309906075928764803_"
     y="0"
     width="1191"
     height="170"
     x="0" /></defs>&#10;		<clipPath
   id="SVGID_00000016041728429496906550000007345257497002148236_">&#10;			<use
   xlink:href="#SVGID_00000034787219993858791540000000309906075928764803_"
   style="overflow:visible"
   id="use8" />&#10;		</clipPath>&#10;	</g>&#10;</g>&#10;<g
   id="g12"
   transform="translate(-327.79989,279.83957)">&#10;	<g
   id="g11">&#10;		<defs
   id="defs10"><rect
     id="SVGID_00000172418869674933781590000012374237965066919065_"
     y="0"
     width="1191"
     height="170"
     x="0" /></defs>&#10;		<clipPath
   id="SVGID_00000058558180979319792220000016219203218291035819_">&#10;			<use
   xlink:href="#SVGID_00000172418869674933781590000012374237965066919065_"
   style="overflow:visible"
   id="use10" />&#10;		</clipPath>&#10;	</g>&#10;</g>&#10;<g
   id="g14"
   transform="translate(-327.79989,279.83957)">&#10;	<g
   id="g13">&#10;		<defs
   id="defs12"><rect
     id="SVGID_00000143606964857169501470000013687333175722449314_"
     y="0"
     width="1191"
     height="170"
     x="0" /></defs>&#10;		<clipPath
   id="SVGID_00000079459268536320527470000007021027137103871142_">&#10;			<use
   xlink:href="#SVGID_00000143606964857169501470000013687333175722449314_"
   style="overflow:visible"
   id="use12" />&#10;		</clipPath>&#10;	</g>&#10;</g>&#10;<g
   id="g16"
   transform="translate(-327.79989,279.83957)">&#10;	<g
   id="g15">&#10;		<defs
   id="defs14"><rect
     id="SVGID_00000009586792721302929520000014081602504827337916_"
     y="0"
     width="1191"
     height="170"
     x="0" /></defs>&#10;		<clipPath
   id="SVGID_00000159459510658761229440000006391078409592372101_">&#10;			<use
   xlink:href="#SVGID_00000009586792721302929520000014081602504827337916_"
   style="overflow:visible"
   id="use14" />&#10;		</clipPath>&#10;	</g>&#10;</g>&#10;&#10;&#10;&#10;&#10;&#10;&#10;&#10;&#10;&#10;&#10;&#10;<g
   id="g48"
   transform="matrix(14.601388,0,0,14.601388,-4786.335,-1574.0296)">&#10;	<g
   id="g47">&#10;		<path
   d="m 381.7,136.3 h -9.1 c -0.1,0 -0.2,-0.1 -0.2,-0.2 v -8.9 c 0,-0.1 0.1,-0.2 0.2,-0.2 h 8.9 c 2,0 3.1,1 3.1,2.5 0,1 -0.5,1.6 -1.2,2 v 0.1 c 0.8,0.4 1.4,1.1 1.4,2.2 0.1,1.8 -1.3,2.5 -3.1,2.5 z m -6.5,-5.7 h 6.6 c 0,0 0.1,0 0.1,-0.1 v -1.4 c 0,0 0,-0.1 -0.1,-0.1 h -6.6 c 0,0 -0.1,0 -0.1,0.1 l 0.1,1.5 c -0.1,0 -0.1,0 0,0 z m 0,3.7 h 6.6 c 0,0 0.1,0 0.1,-0.1 v -1.4 c 0,0 0,-0.1 -0.1,-0.1 h -6.6 c 0,0 -0.1,0 -0.1,0.1 l 0.1,1.5 c -0.1,-0.1 -0.1,0 0,0 z"
   id="path45" />&#10;		<path
   d="M 395.4,136.3 H 391 c -2.3,0 -3.5,-1.3 -3.5,-3.2 v -5.9 c 0,-0.1 0.1,-0.2 0.2,-0.2 h 2.3 c 0.1,0 0.2,0.1 0.2,0.2 v 6.8 c 0,0 0,0.1 0.1,0.1 h 6 c 0,0 0.1,0 0.1,-0.1 v -6.8 c 0,-0.1 0.1,-0.2 0.2,-0.2 h 2.3 c 0.1,0 0.2,0.1 0.2,0.2 v 5.9 c -0.2,1.9 -1.4,3.2 -3.7,3.2 z"
   id="path46" />&#10;		<path
   d="m 401.5,130.1 v -0.6 c 0,-1.6 1.3,-2.6 3.1,-2.6 h 7.9 c 0.1,0 0.2,0.1 0.2,0.2 v 1.8 c 0,0.1 -0.1,0.2 -0.2,0.2 h -8.2 c 0,0 -0.1,0 -0.1,0.1 v 1.2 c 0,0 0,0.1 0.1,0.1 h 6 c 1.8,0 3.1,0.9 3.1,2.6 v 0.6 c 0,1.6 -1.3,2.5 -3.1,2.5 H 402 c -0.1,0 -0.2,-0.1 -0.2,-0.2 v -1.8 c 0,-0.1 0.1,-0.2 0.2,-0.2 h 8.5 c 0,0 0.1,0 0.1,-0.1 v -1.2 c 0,0 0,-0.1 -0.1,-0.1 h -6 c -1.7,0.1 -3,-0.8 -3,-2.5 z"
   id="path47" />&#10;	</g>&#10;	<g
   id="IVECO">&#10;		<path
   id="O"
   d="m 399.4,121.1 c -2.6,0 -4.7,-1.7 -4.7,-3.9 v -5.5 c 0,-2.1 2.1,-3.9 4.7,-3.9 h 8.6 c 2.6,0 4.7,1.7 4.7,3.9 v 5.5 c 0,2.1 -2.1,3.9 -4.7,3.9 z M 398.6,111 c -0.1,0 -0.1,0.1 0,0 l -0.1,6.8 c 0,0.1 0,0.1 0.1,0.1 h 10.2 c 0.1,0 0.1,0 0.1,-0.1 v -6.7 c 0,-0.1 0,-0.1 -0.1,-0.1 z" />&#10;		<path
   id="E"
   d="m 372,121.1 h -10.8 c -2.6,0 -4.7,-1.7 -4.7,-3.9 v -5.5 c 0,-2.1 2.1,-3.9 4.7,-3.9 h 10.8 0.1 c 0.2,0 0.3,0.1 0.3,0.3 v 0 2.6 0 c 0,0.2 -0.1,0.3 -0.3,0.3 v 0 h -11.5 c -0.1,0 -0.1,0.1 -0.1,0.1 v 6.6 c 0,0.1 0.1,0.1 0.1,0.1 h 11.5 v 0 c 0.2,0 0.3,0.1 0.3,0.3 v 0 2.6 0 c 0,0.3 -0.2,0.4 -0.4,0.4 z" />&#10;		<path
   id="E-2"
   d="m 391.3,121.1 h -10.8 c -2.6,0 -4.7,-1.7 -4.7,-3.9 v -5.5 c 0,-2.1 2.1,-3.9 4.7,-3.9 h 10.7 0.1 c 0.2,0 0.3,0.1 0.3,0.3 v 0 2.6 0 c 0,0.2 -0.1,0.3 -0.3,0.3 v 0 h -11.5 c -0.1,0 -0.1,0.1 -0.1,0.1 v 6.6 c 0,0.1 0.1,0.1 0.1,0.1 h 11.5 v 0 c 0.2,0 0.3,0.1 0.3,0.3 v 0 2.6 0 c 0,0.3 -0.1,0.4 -0.3,0.4 z" />&#10;		<path
   id="flashOFlight"
   class="st3"
   d="m 362.5,113 h 9.6 c 0.1,0 0.2,0.1 0.2,0.2 v 2.6 c 0,0.1 -0.1,0.2 -0.2,0.2 h -9.6 c -0.1,0 -0.2,-0.1 -0.2,-0.2 v -2.6 c 0,-0.1 0.1,-0.2 0.2,-0.2 z" />&#10;		<path
   id="V"
   d="m 344.4,121.6 c -1.5,0 -2.8,-0.7 -3.5,-1.8 v -0.1 l -6.7,-11.5 c 0,-0.1 0,-0.2 0,-0.2 0.1,-0.1 0.2,-0.1 0.3,-0.1 h 3.5 c 0.1,0 0.2,0.1 0.3,0.1 l 6.1,10.4 h 0.1 c 0.1,0 0.1,0 0.1,-0.1 l 6.6,-10.4 c 0.1,-0.1 0.2,-0.1 0.3,-0.1 h 3.6 c 0.1,0 0.2,0.1 0.3,0.1 0,0.1 0,0.2 0,0.3 l -7.3,11.5 c -0.8,1.2 -2.2,1.9 -3.7,1.9 z" />&#10;		<path
   id="I"
   d="m 328.1,107.8 h 3.2 c 0.2,0 0.3,0.1 0.3,0.3 v 12.6 c 0,0.2 -0.1,0.3 -0.3,0.3 h -3.2 c -0.2,0 -0.3,-0.1 -0.3,-0.3 v -12.6 c 0,-0.1 0.2,-0.3 0.3,-0.3 z" />&#10;	</g>&#10;</g>&#10;&#10;&#10;&#10;&#10;&#10;&#10;</svg>
